<?xml version="1.0" standalone="no"?><!DOCTYPE svg PUBLIC "-//W3C//DTD SVG 1.1//EN" "http://www.w3.org/Graphics/SVG/1.1/DTD/svg11.dtd"><svg t="1602401601373" class="icon" viewBox="0 0 1024 1024" version="1.1" xmlns="http://www.w3.org/2000/svg" p-id="2535" xmlns:xlink="http://www.w3.org/1999/xlink" width="200" height="200"><defs><style type="text/css"></style></defs><path d="M853.333333 469.333333a42.666667 42.666667 0 0 0-42.666666 42.666667v256a42.666667 42.666667 0 0 1-42.666667 42.666667H256a42.666667 42.666667 0 0 1-42.666667-42.666667V256a42.666667 42.666667 0 0 1 42.666667-42.666667h256a42.666667 42.666667 0 0 0 0-85.333333H256a128 128 0 0 0-128 128v512a128 128 0 0 0 128 128h512a128 128 0 0 0 128-128v-256a42.666667 42.666667 0 0 0-42.666667-42.666667z" fill="#ffffff" p-id="2536"></path><path d="M682.666667 213.333333h67.413333l-268.373333 267.946667a42.666667 42.666667 0 0 0 0 60.586667 42.666667 42.666667 0 0 0 60.586666 0L810.666667 273.92V341.333333a42.666667 42.666667 0 0 0 42.666666 42.666667 42.666667 42.666667 0 0 0 42.666667-42.666667V170.666667a42.666667 42.666667 0 0 0-42.666667-42.666667h-170.666666a42.666667 42.666667 0 0 0 0 85.333333z" fill="#ffffff" p-id="2537"></path></svg>